<svg xmlns="http://www.w3.org/2000/svg" viewBox="0 0 100 100">
  <defs>
    <linearGradient id="grad" x1="0%" y1="0%" x2="100%" y2="100%">
      <stop offset="0%" style="stop-color:#9333EA;stop-opacity:1" />
      <stop offset="100%" style="stop-color:#7C3AED;stop-opacity:1" />
    </linearGradient>
  </defs>
  
  <!-- Background circle -->
  <circle cx="50" cy="50" r="48" fill="url(#grad)"/>
  
  <!-- Open book -->
  <path d="M 25 35 L 25 70 Q 25 65 35 65 Q 45 65 50 70 Q 55 65 65 65 Q 75 65 75 70 L 75 35 Q 75 40 65 40 Q 55 40 50 35 Q 45 40 35 40 Q 25 40 25 35 Z" 
        fill="white" opacity="0.95"/>
  
  <!-- Book spine line -->
  <line x1="50" y1="35" x2="50" y2="70" stroke="white" stroke-width="1" opacity="0.6"/>
  
  <!-- Pulse line -->
  <path d="M 28 50 L 35 50 L 38 45 L 42 55 L 45 50 L 72 50" 
        stroke="white" 
        stroke-width="2.5" 
        fill="none" 
        stroke-linecap="round"
        stroke-linejoin="round"
        opacity="0.9"/>
</svg>
